<mxfile host="Electron" modified="2024-06-02T22:24:36.382Z" agent="Mozilla/5.0 (Windows NT 10.0; Win64; x64) AppleWebKit/537.36 (KHTML, like Gecko) draw.io/24.4.13 Chrome/124.0.6367.207 Electron/30.0.6 Safari/537.36" etag="qBs1aBOMef5sgO4LqGRY" version="24.4.13" type="device">
  <diagram id="FMKxWfmA9thw47G1BriB" name="Страница 1">
    <mxGraphModel dx="1434" dy="836" grid="1" gridSize="10" guides="1" tooltips="1" connect="1" arrows="1" fold="1" page="1" pageScale="1" pageWidth="827" pageHeight="1169" math="0" shadow="0">
      <root>
        <mxCell id="0" />
        <mxCell id="1" parent="0" />
        <mxCell id="Buz3wt09EOpWGdU0lARC-3" value="Да" style="edgeStyle=orthogonalEdgeStyle;rounded=0;orthogonalLoop=1;jettySize=auto;html=1;" parent="1" source="Buz3wt09EOpWGdU0lARC-1" target="Buz3wt09EOpWGdU0lARC-10" edge="1">
          <mxGeometry relative="1" as="geometry" />
        </mxCell>
        <mxCell id="Buz3wt09EOpWGdU0lARC-9" value="Нет" style="edgeStyle=orthogonalEdgeStyle;rounded=0;orthogonalLoop=1;jettySize=auto;html=1;" parent="1" source="Buz3wt09EOpWGdU0lARC-1" target="Buz3wt09EOpWGdU0lARC-8" edge="1">
          <mxGeometry relative="1" as="geometry" />
        </mxCell>
        <mxCell id="Buz3wt09EOpWGdU0lARC-1" value="У класса будут наследники?" style="strokeWidth=2;html=1;shape=mxgraph.flowchart.decision;whiteSpace=wrap;" parent="1" vertex="1">
          <mxGeometry x="280" y="250" width="200" height="90" as="geometry" />
        </mxCell>
        <mxCell id="Buz3wt09EOpWGdU0lARC-5" value="Да" style="edgeStyle=orthogonalEdgeStyle;rounded=0;orthogonalLoop=1;jettySize=auto;html=1;" parent="1" source="Buz3wt09EOpWGdU0lARC-2" target="Buz3wt09EOpWGdU0lARC-4" edge="1">
          <mxGeometry relative="1" as="geometry" />
        </mxCell>
        <mxCell id="Buz3wt09EOpWGdU0lARC-7" value="Нет" style="edgeStyle=orthogonalEdgeStyle;rounded=0;orthogonalLoop=1;jettySize=auto;html=1;" parent="1" source="Buz3wt09EOpWGdU0lARC-2" target="Buz3wt09EOpWGdU0lARC-6" edge="1">
          <mxGeometry relative="1" as="geometry">
            <Array as="points">
              <mxPoint x="630" y="610" />
            </Array>
          </mxGeometry>
        </mxCell>
        <mxCell id="Buz3wt09EOpWGdU0lARC-2" value="Наследники этого класса&lt;br&gt;будут удаляться&amp;nbsp;оператором delete&lt;br&gt;по указателю на этот класс?" style="strokeWidth=2;html=1;shape=mxgraph.flowchart.decision;whiteSpace=wrap;" parent="1" vertex="1">
          <mxGeometry x="240" y="520" width="280" height="120" as="geometry" />
        </mxCell>
        <mxCell id="Buz3wt09EOpWGdU0lARC-15" style="edgeStyle=orthogonalEdgeStyle;rounded=0;orthogonalLoop=1;jettySize=auto;html=1;" parent="1" source="Buz3wt09EOpWGdU0lARC-4" target="Buz3wt09EOpWGdU0lARC-14" edge="1">
          <mxGeometry relative="1" as="geometry" />
        </mxCell>
        <mxCell id="Buz3wt09EOpWGdU0lARC-4" value="Деструктор должен быть публичным виртуальным" style="whiteSpace=wrap;html=1;strokeWidth=2;" parent="1" vertex="1">
          <mxGeometry x="280" y="720" width="200" height="60" as="geometry" />
        </mxCell>
        <mxCell id="Buz3wt09EOpWGdU0lARC-16" style="edgeStyle=orthogonalEdgeStyle;rounded=0;orthogonalLoop=1;jettySize=auto;html=1;" parent="1" source="Buz3wt09EOpWGdU0lARC-6" target="Buz3wt09EOpWGdU0lARC-14" edge="1">
          <mxGeometry relative="1" as="geometry">
            <Array as="points">
              <mxPoint x="630" y="800" />
              <mxPoint x="380" y="800" />
            </Array>
          </mxGeometry>
        </mxCell>
        <mxCell id="Buz3wt09EOpWGdU0lARC-6" value="Деструктор должен быть защищённым невиртуальным" style="whiteSpace=wrap;html=1;strokeWidth=2;" parent="1" vertex="1">
          <mxGeometry x="530" y="720" width="200" height="60" as="geometry" />
        </mxCell>
        <mxCell id="Buz3wt09EOpWGdU0lARC-17" style="edgeStyle=orthogonalEdgeStyle;rounded=0;orthogonalLoop=1;jettySize=auto;html=1;" parent="1" source="Buz3wt09EOpWGdU0lARC-8" target="Buz3wt09EOpWGdU0lARC-14" edge="1">
          <mxGeometry relative="1" as="geometry">
            <Array as="points">
              <mxPoint x="840" y="800" />
              <mxPoint x="380" y="800" />
            </Array>
          </mxGeometry>
        </mxCell>
        <mxCell id="Buz3wt09EOpWGdU0lARC-8" value="Деструктор должен быть публичным невиртуальным или вообще не написан" style="whiteSpace=wrap;html=1;strokeWidth=2;" parent="1" vertex="1">
          <mxGeometry x="760" y="720" width="160" height="60" as="geometry" />
        </mxCell>
        <mxCell id="Buz3wt09EOpWGdU0lARC-11" value="Да" style="edgeStyle=orthogonalEdgeStyle;rounded=0;orthogonalLoop=1;jettySize=auto;html=1;" parent="1" source="Buz3wt09EOpWGdU0lARC-10" target="Buz3wt09EOpWGdU0lARC-2" edge="1">
          <mxGeometry relative="1" as="geometry" />
        </mxCell>
        <mxCell id="Buz3wt09EOpWGdU0lARC-12" value="Нет" style="edgeStyle=orthogonalEdgeStyle;rounded=0;orthogonalLoop=1;jettySize=auto;html=1;" parent="1" source="Buz3wt09EOpWGdU0lARC-10" target="Buz3wt09EOpWGdU0lARC-4" edge="1">
          <mxGeometry relative="1" as="geometry">
            <Array as="points">
              <mxPoint x="170" y="415" />
              <mxPoint x="170" y="760" />
            </Array>
          </mxGeometry>
        </mxCell>
        <mxCell id="Buz3wt09EOpWGdU0lARC-10" value="Этот класс абстрактный?" style="strokeWidth=2;html=1;shape=mxgraph.flowchart.decision;whiteSpace=wrap;" parent="1" vertex="1">
          <mxGeometry x="240" y="380" width="280" height="70" as="geometry" />
        </mxCell>
        <mxCell id="Buz3wt09EOpWGdU0lARC-18" style="edgeStyle=orthogonalEdgeStyle;rounded=0;orthogonalLoop=1;jettySize=auto;html=1;" parent="1" source="Buz3wt09EOpWGdU0lARC-13" target="Buz3wt09EOpWGdU0lARC-1" edge="1">
          <mxGeometry relative="1" as="geometry" />
        </mxCell>
        <mxCell id="Buz3wt09EOpWGdU0lARC-13" value="Начало" style="strokeWidth=2;html=1;shape=mxgraph.flowchart.start_1;whiteSpace=wrap;" parent="1" vertex="1">
          <mxGeometry x="330" y="150" width="100" height="60" as="geometry" />
        </mxCell>
        <mxCell id="Buz3wt09EOpWGdU0lARC-14" value="Конец" style="strokeWidth=2;html=1;shape=mxgraph.flowchart.terminator;whiteSpace=wrap;" parent="1" vertex="1">
          <mxGeometry x="330" y="820" width="100" height="60" as="geometry" />
        </mxCell>
        <mxCell id="CawAfIm3Q9yhhVY6OOaU-1" value="&lt;div&gt;&lt;i&gt;&amp;lt;&amp;lt;interface&amp;gt;&amp;gt;&lt;/i&gt;&lt;/div&gt;&lt;i&gt;Speakable&lt;/i&gt;" style="swimlane;fontStyle=1;align=center;verticalAlign=top;childLayout=stackLayout;horizontal=1;startSize=40;horizontalStack=0;resizeParent=1;resizeParentMax=0;resizeLast=0;collapsible=1;marginBottom=0;whiteSpace=wrap;html=1;" parent="1" vertex="1">
          <mxGeometry x="1120" y="262" width="160" height="66" as="geometry" />
        </mxCell>
        <mxCell id="CawAfIm3Q9yhhVY6OOaU-2" value="&lt;i&gt;+Speak()&lt;/i&gt;" style="text;strokeColor=none;fillColor=none;align=left;verticalAlign=top;spacingLeft=4;spacingRight=4;overflow=hidden;rotatable=0;points=[[0,0.5],[1,0.5]];portConstraint=eastwest;whiteSpace=wrap;html=1;" parent="CawAfIm3Q9yhhVY6OOaU-1" vertex="1">
          <mxGeometry y="40" width="160" height="26" as="geometry" />
        </mxCell>
        <mxCell id="CawAfIm3Q9yhhVY6OOaU-5" value="&lt;div&gt;&lt;i&gt;&amp;lt;&amp;lt;interface&amp;gt;&amp;gt;&lt;/i&gt;&lt;/div&gt;&lt;i&gt;Drawable&lt;/i&gt;" style="swimlane;fontStyle=1;align=center;verticalAlign=top;childLayout=stackLayout;horizontal=1;startSize=40;horizontalStack=0;resizeParent=1;resizeParentMax=0;resizeLast=0;collapsible=1;marginBottom=0;whiteSpace=wrap;html=1;" parent="1" vertex="1">
          <mxGeometry x="1360" y="262" width="160" height="66" as="geometry" />
        </mxCell>
        <mxCell id="CawAfIm3Q9yhhVY6OOaU-6" value="&lt;i&gt;+Speak()&lt;/i&gt;" style="text;strokeColor=none;fillColor=none;align=left;verticalAlign=top;spacingLeft=4;spacingRight=4;overflow=hidden;rotatable=0;points=[[0,0.5],[1,0.5]];portConstraint=eastwest;whiteSpace=wrap;html=1;" parent="CawAfIm3Q9yhhVY6OOaU-5" vertex="1">
          <mxGeometry y="40" width="160" height="26" as="geometry" />
        </mxCell>
        <mxCell id="CawAfIm3Q9yhhVY6OOaU-7" value="&lt;i&gt;Animal&lt;/i&gt;" style="swimlane;fontStyle=1;align=center;verticalAlign=top;childLayout=stackLayout;horizontal=1;startSize=26;horizontalStack=0;resizeParent=1;resizeParentMax=0;resizeLast=0;collapsible=1;marginBottom=0;whiteSpace=wrap;html=1;" parent="1" vertex="1">
          <mxGeometry x="1241" y="600" width="160" height="78" as="geometry" />
        </mxCell>
        <mxCell id="CawAfIm3Q9yhhVY6OOaU-8" value="+Eat()" style="text;strokeColor=none;fillColor=none;align=left;verticalAlign=top;spacingLeft=4;spacingRight=4;overflow=hidden;rotatable=0;points=[[0,0.5],[1,0.5]];portConstraint=eastwest;whiteSpace=wrap;html=1;" parent="CawAfIm3Q9yhhVY6OOaU-7" vertex="1">
          <mxGeometry y="26" width="160" height="26" as="geometry" />
        </mxCell>
        <mxCell id="CawAfIm3Q9yhhVY6OOaU-10" value="&lt;i&gt;+GetType():string&lt;/i&gt;" style="text;strokeColor=none;fillColor=none;align=left;verticalAlign=top;spacingLeft=4;spacingRight=4;overflow=hidden;rotatable=0;points=[[0,0.5],[1,0.5]];portConstraint=eastwest;whiteSpace=wrap;html=1;" parent="CawAfIm3Q9yhhVY6OOaU-7" vertex="1">
          <mxGeometry y="52" width="160" height="26" as="geometry" />
        </mxCell>
        <mxCell id="CawAfIm3Q9yhhVY6OOaU-11" value="Cat" style="swimlane;fontStyle=1;align=center;verticalAlign=top;childLayout=stackLayout;horizontal=1;startSize=26;horizontalStack=0;resizeParent=1;resizeParentMax=0;resizeLast=0;collapsible=1;marginBottom=0;whiteSpace=wrap;html=1;" parent="1" vertex="1">
          <mxGeometry x="1120" y="401" width="160" height="104" as="geometry" />
        </mxCell>
        <mxCell id="CawAfIm3Q9yhhVY6OOaU-14" value="&lt;span&gt;+GetType():string&lt;/span&gt;" style="text;strokeColor=none;fillColor=none;align=left;verticalAlign=top;spacingLeft=4;spacingRight=4;overflow=hidden;rotatable=0;points=[[0,0.5],[1,0.5]];portConstraint=eastwest;whiteSpace=wrap;html=1;fontStyle=0" parent="CawAfIm3Q9yhhVY6OOaU-11" vertex="1">
          <mxGeometry y="26" width="160" height="26" as="geometry" />
        </mxCell>
        <mxCell id="CawAfIm3Q9yhhVY6OOaU-17" value="&lt;span&gt;+Draw()&lt;/span&gt;" style="text;strokeColor=none;fillColor=none;align=left;verticalAlign=top;spacingLeft=4;spacingRight=4;overflow=hidden;rotatable=0;points=[[0,0.5],[1,0.5]];portConstraint=eastwest;whiteSpace=wrap;html=1;fontStyle=0" parent="CawAfIm3Q9yhhVY6OOaU-11" vertex="1">
          <mxGeometry y="52" width="160" height="26" as="geometry" />
        </mxCell>
        <mxCell id="CawAfIm3Q9yhhVY6OOaU-18" value="&lt;span&gt;+Speak()&lt;/span&gt;" style="text;strokeColor=none;fillColor=none;align=left;verticalAlign=top;spacingLeft=4;spacingRight=4;overflow=hidden;rotatable=0;points=[[0,0.5],[1,0.5]];portConstraint=eastwest;whiteSpace=wrap;html=1;fontStyle=0" parent="CawAfIm3Q9yhhVY6OOaU-11" vertex="1">
          <mxGeometry y="78" width="160" height="26" as="geometry" />
        </mxCell>
        <mxCell id="CawAfIm3Q9yhhVY6OOaU-19" value="Fish" style="swimlane;fontStyle=1;align=center;verticalAlign=top;childLayout=stackLayout;horizontal=1;startSize=26;horizontalStack=0;resizeParent=1;resizeParentMax=0;resizeLast=0;collapsible=1;marginBottom=0;whiteSpace=wrap;html=1;" parent="1" vertex="1">
          <mxGeometry x="1360" y="401" width="160" height="78" as="geometry" />
        </mxCell>
        <mxCell id="CawAfIm3Q9yhhVY6OOaU-20" value="&lt;span&gt;+GetType():string&lt;/span&gt;" style="text;strokeColor=none;fillColor=none;align=left;verticalAlign=top;spacingLeft=4;spacingRight=4;overflow=hidden;rotatable=0;points=[[0,0.5],[1,0.5]];portConstraint=eastwest;whiteSpace=wrap;html=1;fontStyle=0" parent="CawAfIm3Q9yhhVY6OOaU-19" vertex="1">
          <mxGeometry y="26" width="160" height="26" as="geometry" />
        </mxCell>
        <mxCell id="CawAfIm3Q9yhhVY6OOaU-21" value="&lt;span&gt;+Draw()&lt;/span&gt;" style="text;strokeColor=none;fillColor=none;align=left;verticalAlign=top;spacingLeft=4;spacingRight=4;overflow=hidden;rotatable=0;points=[[0,0.5],[1,0.5]];portConstraint=eastwest;whiteSpace=wrap;html=1;fontStyle=0" parent="CawAfIm3Q9yhhVY6OOaU-19" vertex="1">
          <mxGeometry y="52" width="160" height="26" as="geometry" />
        </mxCell>
        <mxCell id="CawAfIm3Q9yhhVY6OOaU-23" value="" style="endArrow=block;dashed=1;endFill=0;endSize=12;html=1;rounded=0;" parent="1" source="CawAfIm3Q9yhhVY6OOaU-11" target="CawAfIm3Q9yhhVY6OOaU-1" edge="1">
          <mxGeometry width="160" relative="1" as="geometry">
            <mxPoint x="1090" y="350" as="sourcePoint" />
            <mxPoint x="1250" y="350" as="targetPoint" />
          </mxGeometry>
        </mxCell>
        <mxCell id="CawAfIm3Q9yhhVY6OOaU-24" value="" style="endArrow=block;dashed=1;endFill=0;endSize=12;html=1;rounded=0;" parent="1" source="CawAfIm3Q9yhhVY6OOaU-19" target="CawAfIm3Q9yhhVY6OOaU-5" edge="1">
          <mxGeometry width="160" relative="1" as="geometry">
            <mxPoint x="1210" y="406" as="sourcePoint" />
            <mxPoint x="1210" y="316" as="targetPoint" />
          </mxGeometry>
        </mxCell>
        <mxCell id="CawAfIm3Q9yhhVY6OOaU-25" value="" style="endArrow=block;dashed=1;endFill=0;endSize=12;html=1;rounded=0;" parent="1" source="CawAfIm3Q9yhhVY6OOaU-11" target="CawAfIm3Q9yhhVY6OOaU-5" edge="1">
          <mxGeometry width="160" relative="1" as="geometry">
            <mxPoint x="1210" y="406" as="sourcePoint" />
            <mxPoint x="1210" y="316" as="targetPoint" />
          </mxGeometry>
        </mxCell>
        <mxCell id="CawAfIm3Q9yhhVY6OOaU-26" value="Extends" style="endArrow=block;endSize=16;endFill=0;html=1;rounded=0;" parent="1" source="CawAfIm3Q9yhhVY6OOaU-11" target="CawAfIm3Q9yhhVY6OOaU-7" edge="1">
          <mxGeometry width="160" relative="1" as="geometry">
            <mxPoint x="1140" y="540" as="sourcePoint" />
            <mxPoint x="1300" y="540" as="targetPoint" />
          </mxGeometry>
        </mxCell>
        <mxCell id="CawAfIm3Q9yhhVY6OOaU-27" value="Extends" style="endArrow=block;endSize=16;endFill=0;html=1;rounded=0;" parent="1" source="CawAfIm3Q9yhhVY6OOaU-19" target="CawAfIm3Q9yhhVY6OOaU-7" edge="1">
          <mxGeometry width="160" relative="1" as="geometry">
            <mxPoint x="1140" y="540" as="sourcePoint" />
            <mxPoint x="1300" y="540" as="targetPoint" />
          </mxGeometry>
        </mxCell>
        <mxCell id="CawAfIm3Q9yhhVY6OOaU-28" value="&lt;div&gt;&lt;i&gt;&amp;lt;&amp;lt;interface&amp;gt;&amp;gt;&lt;/i&gt;&lt;/div&gt;&lt;i&gt;Speakable&lt;/i&gt;" style="swimlane;fontStyle=1;align=center;verticalAlign=top;childLayout=stackLayout;horizontal=1;startSize=40;horizontalStack=0;resizeParent=1;resizeParentMax=0;resizeLast=0;collapsible=1;marginBottom=0;whiteSpace=wrap;html=1;" parent="1" vertex="1">
          <mxGeometry x="1670" y="232" width="160" height="66" as="geometry" />
        </mxCell>
        <mxCell id="CawAfIm3Q9yhhVY6OOaU-29" value="&lt;i&gt;+Speak()&lt;/i&gt;" style="text;strokeColor=none;fillColor=none;align=left;verticalAlign=top;spacingLeft=4;spacingRight=4;overflow=hidden;rotatable=0;points=[[0,0.5],[1,0.5]];portConstraint=eastwest;whiteSpace=wrap;html=1;" parent="CawAfIm3Q9yhhVY6OOaU-28" vertex="1">
          <mxGeometry y="40" width="160" height="26" as="geometry" />
        </mxCell>
        <mxCell id="CawAfIm3Q9yhhVY6OOaU-30" value="&lt;div&gt;&lt;i&gt;&amp;lt;&amp;lt;interface&amp;gt;&amp;gt;&lt;/i&gt;&lt;/div&gt;&lt;i&gt;Drawable&lt;/i&gt;" style="swimlane;fontStyle=1;align=center;verticalAlign=top;childLayout=stackLayout;horizontal=1;startSize=40;horizontalStack=0;resizeParent=1;resizeParentMax=0;resizeLast=0;collapsible=1;marginBottom=0;whiteSpace=wrap;html=1;" parent="1" vertex="1">
          <mxGeometry x="1910" y="314" width="120" height="66" as="geometry" />
        </mxCell>
        <mxCell id="CawAfIm3Q9yhhVY6OOaU-31" value="&lt;i&gt;+Speak()&lt;/i&gt;" style="text;strokeColor=none;fillColor=none;align=left;verticalAlign=top;spacingLeft=4;spacingRight=4;overflow=hidden;rotatable=0;points=[[0,0.5],[1,0.5]];portConstraint=eastwest;whiteSpace=wrap;html=1;" parent="CawAfIm3Q9yhhVY6OOaU-30" vertex="1">
          <mxGeometry y="40" width="120" height="26" as="geometry" />
        </mxCell>
        <mxCell id="CawAfIm3Q9yhhVY6OOaU-32" value="&lt;i&gt;Animal&lt;/i&gt;" style="swimlane;fontStyle=1;align=center;verticalAlign=top;childLayout=stackLayout;horizontal=1;startSize=26;horizontalStack=0;resizeParent=1;resizeParentMax=0;resizeLast=0;collapsible=1;marginBottom=0;whiteSpace=wrap;html=1;" parent="1" vertex="1">
          <mxGeometry x="1890" y="172" width="160" height="78" as="geometry" />
        </mxCell>
        <mxCell id="CawAfIm3Q9yhhVY6OOaU-33" value="+Eat()" style="text;strokeColor=none;fillColor=none;align=left;verticalAlign=top;spacingLeft=4;spacingRight=4;overflow=hidden;rotatable=0;points=[[0,0.5],[1,0.5]];portConstraint=eastwest;whiteSpace=wrap;html=1;" parent="CawAfIm3Q9yhhVY6OOaU-32" vertex="1">
          <mxGeometry y="26" width="160" height="26" as="geometry" />
        </mxCell>
        <mxCell id="CawAfIm3Q9yhhVY6OOaU-34" value="&lt;i&gt;+GetType():string&lt;/i&gt;" style="text;strokeColor=none;fillColor=none;align=left;verticalAlign=top;spacingLeft=4;spacingRight=4;overflow=hidden;rotatable=0;points=[[0,0.5],[1,0.5]];portConstraint=eastwest;whiteSpace=wrap;html=1;" parent="CawAfIm3Q9yhhVY6OOaU-32" vertex="1">
          <mxGeometry y="52" width="160" height="26" as="geometry" />
        </mxCell>
        <mxCell id="CawAfIm3Q9yhhVY6OOaU-35" value="Cat" style="swimlane;fontStyle=1;align=center;verticalAlign=top;childLayout=stackLayout;horizontal=1;startSize=26;horizontalStack=0;resizeParent=1;resizeParentMax=0;resizeLast=0;collapsible=1;marginBottom=0;whiteSpace=wrap;html=1;" parent="1" vertex="1">
          <mxGeometry x="1670" y="380" width="160" height="104" as="geometry" />
        </mxCell>
        <mxCell id="CawAfIm3Q9yhhVY6OOaU-36" value="&lt;span&gt;+GetType():string&lt;/span&gt;" style="text;strokeColor=none;fillColor=none;align=left;verticalAlign=top;spacingLeft=4;spacingRight=4;overflow=hidden;rotatable=0;points=[[0,0.5],[1,0.5]];portConstraint=eastwest;whiteSpace=wrap;html=1;fontStyle=0" parent="CawAfIm3Q9yhhVY6OOaU-35" vertex="1">
          <mxGeometry y="26" width="160" height="26" as="geometry" />
        </mxCell>
        <mxCell id="CawAfIm3Q9yhhVY6OOaU-37" value="&lt;span&gt;+Draw()&lt;/span&gt;" style="text;strokeColor=none;fillColor=none;align=left;verticalAlign=top;spacingLeft=4;spacingRight=4;overflow=hidden;rotatable=0;points=[[0,0.5],[1,0.5]];portConstraint=eastwest;whiteSpace=wrap;html=1;fontStyle=0" parent="CawAfIm3Q9yhhVY6OOaU-35" vertex="1">
          <mxGeometry y="52" width="160" height="26" as="geometry" />
        </mxCell>
        <mxCell id="CawAfIm3Q9yhhVY6OOaU-38" value="&lt;span&gt;+Speak()&lt;/span&gt;" style="text;strokeColor=none;fillColor=none;align=left;verticalAlign=top;spacingLeft=4;spacingRight=4;overflow=hidden;rotatable=0;points=[[0,0.5],[1,0.5]];portConstraint=eastwest;whiteSpace=wrap;html=1;fontStyle=0" parent="CawAfIm3Q9yhhVY6OOaU-35" vertex="1">
          <mxGeometry y="78" width="160" height="26" as="geometry" />
        </mxCell>
        <mxCell id="CawAfIm3Q9yhhVY6OOaU-39" value="Fish" style="swimlane;fontStyle=1;align=center;verticalAlign=top;childLayout=stackLayout;horizontal=1;startSize=26;horizontalStack=0;resizeParent=1;resizeParentMax=0;resizeLast=0;collapsible=1;marginBottom=0;whiteSpace=wrap;html=1;" parent="1" vertex="1">
          <mxGeometry x="2100" y="395" width="160" height="78" as="geometry" />
        </mxCell>
        <mxCell id="CawAfIm3Q9yhhVY6OOaU-40" value="&lt;span&gt;+GetType():string&lt;/span&gt;" style="text;strokeColor=none;fillColor=none;align=left;verticalAlign=top;spacingLeft=4;spacingRight=4;overflow=hidden;rotatable=0;points=[[0,0.5],[1,0.5]];portConstraint=eastwest;whiteSpace=wrap;html=1;fontStyle=0" parent="CawAfIm3Q9yhhVY6OOaU-39" vertex="1">
          <mxGeometry y="26" width="160" height="26" as="geometry" />
        </mxCell>
        <mxCell id="CawAfIm3Q9yhhVY6OOaU-41" value="&lt;span&gt;+Draw()&lt;/span&gt;" style="text;strokeColor=none;fillColor=none;align=left;verticalAlign=top;spacingLeft=4;spacingRight=4;overflow=hidden;rotatable=0;points=[[0,0.5],[1,0.5]];portConstraint=eastwest;whiteSpace=wrap;html=1;fontStyle=0" parent="CawAfIm3Q9yhhVY6OOaU-39" vertex="1">
          <mxGeometry y="52" width="160" height="26" as="geometry" />
        </mxCell>
        <mxCell id="CawAfIm3Q9yhhVY6OOaU-42" value="" style="endArrow=block;dashed=1;endFill=0;endSize=12;html=1;rounded=0;" parent="1" source="CawAfIm3Q9yhhVY6OOaU-35" target="CawAfIm3Q9yhhVY6OOaU-28" edge="1">
          <mxGeometry width="160" relative="1" as="geometry">
            <mxPoint x="1690" y="333" as="sourcePoint" />
            <mxPoint x="1850" y="333" as="targetPoint" />
          </mxGeometry>
        </mxCell>
        <mxCell id="CawAfIm3Q9yhhVY6OOaU-43" value="" style="endArrow=block;dashed=1;endFill=0;endSize=12;html=1;rounded=0;fillColor=#e51400;strokeColor=#B20000;strokeWidth=3;" parent="1" source="CawAfIm3Q9yhhVY6OOaU-39" target="CawAfIm3Q9yhhVY6OOaU-30" edge="1">
          <mxGeometry width="160" relative="1" as="geometry">
            <mxPoint x="1810" y="389" as="sourcePoint" />
            <mxPoint x="1810" y="299" as="targetPoint" />
          </mxGeometry>
        </mxCell>
        <mxCell id="CawAfIm3Q9yhhVY6OOaU-44" value="" style="endArrow=block;dashed=1;endFill=0;endSize=12;html=1;rounded=0;fillColor=#e51400;strokeColor=#B20000;strokeWidth=3;" parent="1" source="CawAfIm3Q9yhhVY6OOaU-35" target="CawAfIm3Q9yhhVY6OOaU-30" edge="1">
          <mxGeometry width="160" relative="1" as="geometry">
            <mxPoint x="1810" y="389" as="sourcePoint" />
            <mxPoint x="1810" y="299" as="targetPoint" />
          </mxGeometry>
        </mxCell>
        <mxCell id="CawAfIm3Q9yhhVY6OOaU-45" value="Extends" style="endArrow=block;endSize=16;endFill=0;html=1;rounded=0;fillColor=#e51400;strokeColor=#B20000;strokeWidth=3;" parent="1" source="CawAfIm3Q9yhhVY6OOaU-35" target="CawAfIm3Q9yhhVY6OOaU-32" edge="1">
          <mxGeometry width="160" relative="1" as="geometry">
            <mxPoint x="1740" y="523" as="sourcePoint" />
            <mxPoint x="1900" y="523" as="targetPoint" />
          </mxGeometry>
        </mxCell>
        <mxCell id="CawAfIm3Q9yhhVY6OOaU-46" value="Extends" style="endArrow=block;endSize=16;endFill=0;html=1;rounded=0;fillColor=#e51400;strokeColor=#B20000;strokeWidth=3;" parent="1" source="CawAfIm3Q9yhhVY6OOaU-39" target="CawAfIm3Q9yhhVY6OOaU-32" edge="1">
          <mxGeometry width="160" relative="1" as="geometry">
            <mxPoint x="1740" y="523" as="sourcePoint" />
            <mxPoint x="1900" y="523" as="targetPoint" />
          </mxGeometry>
        </mxCell>
        <mxCell id="CawAfIm3Q9yhhVY6OOaU-47" value="CatFish" style="swimlane;fontStyle=1;align=center;verticalAlign=top;childLayout=stackLayout;horizontal=1;startSize=26;horizontalStack=0;resizeParent=1;resizeParentMax=0;resizeLast=0;collapsible=1;marginBottom=0;whiteSpace=wrap;html=1;fillColor=#f8cecc;strokeColor=#b85450;" parent="1" vertex="1">
          <mxGeometry x="1880" y="540" width="160" height="104" as="geometry" />
        </mxCell>
        <mxCell id="CawAfIm3Q9yhhVY6OOaU-48" value="&lt;span&gt;+GetType():string&lt;/span&gt;" style="text;strokeColor=none;fillColor=none;align=left;verticalAlign=top;spacingLeft=4;spacingRight=4;overflow=hidden;rotatable=0;points=[[0,0.5],[1,0.5]];portConstraint=eastwest;whiteSpace=wrap;html=1;fontStyle=0" parent="CawAfIm3Q9yhhVY6OOaU-47" vertex="1">
          <mxGeometry y="26" width="160" height="26" as="geometry" />
        </mxCell>
        <mxCell id="CawAfIm3Q9yhhVY6OOaU-49" value="&lt;span&gt;+Draw()&lt;/span&gt;" style="text;strokeColor=none;fillColor=none;align=left;verticalAlign=top;spacingLeft=4;spacingRight=4;overflow=hidden;rotatable=0;points=[[0,0.5],[1,0.5]];portConstraint=eastwest;whiteSpace=wrap;html=1;fontStyle=0" parent="CawAfIm3Q9yhhVY6OOaU-47" vertex="1">
          <mxGeometry y="52" width="160" height="26" as="geometry" />
        </mxCell>
        <mxCell id="CawAfIm3Q9yhhVY6OOaU-50" value="&lt;span&gt;+Speak()&lt;/span&gt;" style="text;strokeColor=none;fillColor=none;align=left;verticalAlign=top;spacingLeft=4;spacingRight=4;overflow=hidden;rotatable=0;points=[[0,0.5],[1,0.5]];portConstraint=eastwest;whiteSpace=wrap;html=1;fontStyle=0" parent="CawAfIm3Q9yhhVY6OOaU-47" vertex="1">
          <mxGeometry y="78" width="160" height="26" as="geometry" />
        </mxCell>
        <mxCell id="CawAfIm3Q9yhhVY6OOaU-51" value="Extends" style="endArrow=block;endSize=16;endFill=0;html=1;rounded=0;fillColor=#e51400;strokeColor=#B20000;strokeWidth=3;" parent="1" source="CawAfIm3Q9yhhVY6OOaU-47" target="CawAfIm3Q9yhhVY6OOaU-35" edge="1">
          <mxGeometry width="160" relative="1" as="geometry">
            <mxPoint x="1660" y="590" as="sourcePoint" />
            <mxPoint x="1820" y="590" as="targetPoint" />
          </mxGeometry>
        </mxCell>
        <mxCell id="CawAfIm3Q9yhhVY6OOaU-52" value="Extends" style="endArrow=block;endSize=16;endFill=0;html=1;rounded=0;fillColor=#e51400;strokeColor=#B20000;strokeWidth=3;" parent="1" source="CawAfIm3Q9yhhVY6OOaU-47" target="CawAfIm3Q9yhhVY6OOaU-39" edge="1">
          <mxGeometry width="160" relative="1" as="geometry">
            <mxPoint x="1660" y="590" as="sourcePoint" />
            <mxPoint x="1820" y="590" as="targetPoint" />
          </mxGeometry>
        </mxCell>
        <mxCell id="CawAfIm3Q9yhhVY6OOaU-53" value="&lt;div&gt;&lt;i&gt;&amp;lt;&amp;lt;interface&amp;gt;&amp;gt;&lt;/i&gt;&lt;/div&gt;&lt;i&gt;Speakable&lt;/i&gt;" style="swimlane;fontStyle=1;align=center;verticalAlign=top;childLayout=stackLayout;horizontal=1;startSize=40;horizontalStack=0;resizeParent=1;resizeParentMax=0;resizeLast=0;collapsible=1;marginBottom=0;whiteSpace=wrap;html=1;" parent="1" vertex="1">
          <mxGeometry x="1675" y="792" width="160" height="66" as="geometry" />
        </mxCell>
        <mxCell id="CawAfIm3Q9yhhVY6OOaU-54" value="&lt;i&gt;+Speak()&lt;/i&gt;" style="text;strokeColor=none;fillColor=none;align=left;verticalAlign=top;spacingLeft=4;spacingRight=4;overflow=hidden;rotatable=0;points=[[0,0.5],[1,0.5]];portConstraint=eastwest;whiteSpace=wrap;html=1;" parent="CawAfIm3Q9yhhVY6OOaU-53" vertex="1">
          <mxGeometry y="40" width="160" height="26" as="geometry" />
        </mxCell>
        <mxCell id="CawAfIm3Q9yhhVY6OOaU-55" value="&lt;div&gt;&lt;i&gt;&amp;lt;&amp;lt;interface&amp;gt;&amp;gt;&lt;/i&gt;&lt;/div&gt;&lt;i&gt;Drawable&lt;/i&gt;" style="swimlane;fontStyle=1;align=center;verticalAlign=top;childLayout=stackLayout;horizontal=1;startSize=40;horizontalStack=0;resizeParent=1;resizeParentMax=0;resizeLast=0;collapsible=1;marginBottom=0;whiteSpace=wrap;html=1;" parent="1" vertex="1">
          <mxGeometry x="1920" y="962" width="120" height="66" as="geometry" />
        </mxCell>
        <mxCell id="CawAfIm3Q9yhhVY6OOaU-56" value="&lt;i&gt;+Speak()&lt;/i&gt;" style="text;strokeColor=none;fillColor=none;align=left;verticalAlign=top;spacingLeft=4;spacingRight=4;overflow=hidden;rotatable=0;points=[[0,0.5],[1,0.5]];portConstraint=eastwest;whiteSpace=wrap;html=1;" parent="CawAfIm3Q9yhhVY6OOaU-55" vertex="1">
          <mxGeometry y="40" width="120" height="26" as="geometry" />
        </mxCell>
        <mxCell id="CawAfIm3Q9yhhVY6OOaU-57" value="&lt;i&gt;Animal&lt;/i&gt;" style="swimlane;fontStyle=1;align=center;verticalAlign=top;childLayout=stackLayout;horizontal=1;startSize=26;horizontalStack=0;resizeParent=1;resizeParentMax=0;resizeLast=0;collapsible=1;marginBottom=0;whiteSpace=wrap;html=1;" parent="1" vertex="1">
          <mxGeometry x="1910" y="780" width="160" height="78" as="geometry" />
        </mxCell>
        <mxCell id="CawAfIm3Q9yhhVY6OOaU-58" value="+Eat()" style="text;strokeColor=none;fillColor=none;align=left;verticalAlign=top;spacingLeft=4;spacingRight=4;overflow=hidden;rotatable=0;points=[[0,0.5],[1,0.5]];portConstraint=eastwest;whiteSpace=wrap;html=1;" parent="CawAfIm3Q9yhhVY6OOaU-57" vertex="1">
          <mxGeometry y="26" width="160" height="26" as="geometry" />
        </mxCell>
        <mxCell id="CawAfIm3Q9yhhVY6OOaU-59" value="&lt;i&gt;+GetType():string&lt;/i&gt;" style="text;strokeColor=none;fillColor=none;align=left;verticalAlign=top;spacingLeft=4;spacingRight=4;overflow=hidden;rotatable=0;points=[[0,0.5],[1,0.5]];portConstraint=eastwest;whiteSpace=wrap;html=1;" parent="CawAfIm3Q9yhhVY6OOaU-57" vertex="1">
          <mxGeometry y="52" width="160" height="26" as="geometry" />
        </mxCell>
        <mxCell id="CawAfIm3Q9yhhVY6OOaU-60" value="Cat" style="swimlane;fontStyle=1;align=center;verticalAlign=top;childLayout=stackLayout;horizontal=1;startSize=26;horizontalStack=0;resizeParent=1;resizeParentMax=0;resizeLast=0;collapsible=1;marginBottom=0;whiteSpace=wrap;html=1;" parent="1" vertex="1">
          <mxGeometry x="1675" y="1028" width="160" height="104" as="geometry" />
        </mxCell>
        <mxCell id="CawAfIm3Q9yhhVY6OOaU-61" value="&lt;span&gt;+GetType():string&lt;/span&gt;" style="text;strokeColor=none;fillColor=none;align=left;verticalAlign=top;spacingLeft=4;spacingRight=4;overflow=hidden;rotatable=0;points=[[0,0.5],[1,0.5]];portConstraint=eastwest;whiteSpace=wrap;html=1;fontStyle=0" parent="CawAfIm3Q9yhhVY6OOaU-60" vertex="1">
          <mxGeometry y="26" width="160" height="26" as="geometry" />
        </mxCell>
        <mxCell id="CawAfIm3Q9yhhVY6OOaU-62" value="&lt;span&gt;+Draw()&lt;/span&gt;" style="text;strokeColor=none;fillColor=none;align=left;verticalAlign=top;spacingLeft=4;spacingRight=4;overflow=hidden;rotatable=0;points=[[0,0.5],[1,0.5]];portConstraint=eastwest;whiteSpace=wrap;html=1;fontStyle=0" parent="CawAfIm3Q9yhhVY6OOaU-60" vertex="1">
          <mxGeometry y="52" width="160" height="26" as="geometry" />
        </mxCell>
        <mxCell id="CawAfIm3Q9yhhVY6OOaU-63" value="&lt;span&gt;+Speak()&lt;/span&gt;" style="text;strokeColor=none;fillColor=none;align=left;verticalAlign=top;spacingLeft=4;spacingRight=4;overflow=hidden;rotatable=0;points=[[0,0.5],[1,0.5]];portConstraint=eastwest;whiteSpace=wrap;html=1;fontStyle=0" parent="CawAfIm3Q9yhhVY6OOaU-60" vertex="1">
          <mxGeometry y="78" width="160" height="26" as="geometry" />
        </mxCell>
        <mxCell id="CawAfIm3Q9yhhVY6OOaU-64" value="Fish" style="swimlane;fontStyle=1;align=center;verticalAlign=top;childLayout=stackLayout;horizontal=1;startSize=26;horizontalStack=0;resizeParent=1;resizeParentMax=0;resizeLast=0;collapsible=1;marginBottom=0;whiteSpace=wrap;html=1;" parent="1" vertex="1">
          <mxGeometry x="2105" y="1043" width="160" height="78" as="geometry" />
        </mxCell>
        <mxCell id="CawAfIm3Q9yhhVY6OOaU-65" value="&lt;span&gt;+GetType():string&lt;/span&gt;" style="text;strokeColor=none;fillColor=none;align=left;verticalAlign=top;spacingLeft=4;spacingRight=4;overflow=hidden;rotatable=0;points=[[0,0.5],[1,0.5]];portConstraint=eastwest;whiteSpace=wrap;html=1;fontStyle=0" parent="CawAfIm3Q9yhhVY6OOaU-64" vertex="1">
          <mxGeometry y="26" width="160" height="26" as="geometry" />
        </mxCell>
        <mxCell id="CawAfIm3Q9yhhVY6OOaU-66" value="&lt;span&gt;+Draw()&lt;/span&gt;" style="text;strokeColor=none;fillColor=none;align=left;verticalAlign=top;spacingLeft=4;spacingRight=4;overflow=hidden;rotatable=0;points=[[0,0.5],[1,0.5]];portConstraint=eastwest;whiteSpace=wrap;html=1;fontStyle=0" parent="CawAfIm3Q9yhhVY6OOaU-64" vertex="1">
          <mxGeometry y="52" width="160" height="26" as="geometry" />
        </mxCell>
        <mxCell id="CawAfIm3Q9yhhVY6OOaU-67" value="" style="endArrow=block;dashed=1;endFill=0;endSize=12;html=1;rounded=0;" parent="1" source="CawAfIm3Q9yhhVY6OOaU-60" target="CawAfIm3Q9yhhVY6OOaU-53" edge="1">
          <mxGeometry width="160" relative="1" as="geometry">
            <mxPoint x="1695" y="981" as="sourcePoint" />
            <mxPoint x="1855" y="981" as="targetPoint" />
          </mxGeometry>
        </mxCell>
        <mxCell id="CawAfIm3Q9yhhVY6OOaU-68" value="virtual" style="endArrow=block;dashed=1;endFill=0;endSize=12;html=1;rounded=0;fillColor=#1ba1e2;strokeColor=#006EAF;strokeWidth=1;" parent="1" source="CawAfIm3Q9yhhVY6OOaU-64" target="CawAfIm3Q9yhhVY6OOaU-55" edge="1">
          <mxGeometry x="0.0041" width="160" relative="1" as="geometry">
            <mxPoint x="1815" y="1037" as="sourcePoint" />
            <mxPoint x="1815" y="947" as="targetPoint" />
            <mxPoint as="offset" />
          </mxGeometry>
        </mxCell>
        <mxCell id="CawAfIm3Q9yhhVY6OOaU-69" value="virtual" style="endArrow=block;dashed=1;endFill=0;endSize=12;html=1;rounded=0;fillColor=#1ba1e2;strokeColor=#006EAF;strokeWidth=1;" parent="1" source="CawAfIm3Q9yhhVY6OOaU-60" target="CawAfIm3Q9yhhVY6OOaU-55" edge="1">
          <mxGeometry width="160" relative="1" as="geometry">
            <mxPoint x="1815" y="1037" as="sourcePoint" />
            <mxPoint x="1815" y="947" as="targetPoint" />
          </mxGeometry>
        </mxCell>
        <mxCell id="CawAfIm3Q9yhhVY6OOaU-70" value="Extends (virtual)" style="endArrow=block;endSize=16;endFill=0;html=1;rounded=0;fillColor=#1ba1e2;strokeColor=#006EAF;strokeWidth=1;" parent="1" source="CawAfIm3Q9yhhVY6OOaU-60" target="CawAfIm3Q9yhhVY6OOaU-57" edge="1">
          <mxGeometry width="160" relative="1" as="geometry">
            <mxPoint x="1745" y="1171" as="sourcePoint" />
            <mxPoint x="1905" y="1171" as="targetPoint" />
          </mxGeometry>
        </mxCell>
        <mxCell id="CawAfIm3Q9yhhVY6OOaU-71" value="Extends (virtual)" style="endArrow=block;endSize=16;endFill=0;html=1;rounded=0;fillColor=#1ba1e2;strokeColor=#006EAF;strokeWidth=1;" parent="1" source="CawAfIm3Q9yhhVY6OOaU-64" target="CawAfIm3Q9yhhVY6OOaU-57" edge="1">
          <mxGeometry width="160" relative="1" as="geometry">
            <mxPoint x="1745" y="1171" as="sourcePoint" />
            <mxPoint x="1905" y="1171" as="targetPoint" />
          </mxGeometry>
        </mxCell>
        <mxCell id="CawAfIm3Q9yhhVY6OOaU-72" value="CatFish" style="swimlane;fontStyle=1;align=center;verticalAlign=top;childLayout=stackLayout;horizontal=1;startSize=26;horizontalStack=0;resizeParent=1;resizeParentMax=0;resizeLast=0;collapsible=1;marginBottom=0;whiteSpace=wrap;html=1;fillColor=#f8cecc;strokeColor=#b85450;" parent="1" vertex="1">
          <mxGeometry x="1885" y="1188" width="160" height="104" as="geometry" />
        </mxCell>
        <mxCell id="CawAfIm3Q9yhhVY6OOaU-73" value="&lt;span&gt;+GetType():string&lt;/span&gt;" style="text;strokeColor=none;fillColor=none;align=left;verticalAlign=top;spacingLeft=4;spacingRight=4;overflow=hidden;rotatable=0;points=[[0,0.5],[1,0.5]];portConstraint=eastwest;whiteSpace=wrap;html=1;fontStyle=0" parent="CawAfIm3Q9yhhVY6OOaU-72" vertex="1">
          <mxGeometry y="26" width="160" height="26" as="geometry" />
        </mxCell>
        <mxCell id="CawAfIm3Q9yhhVY6OOaU-74" value="&lt;span&gt;+Draw()&lt;/span&gt;" style="text;strokeColor=none;fillColor=none;align=left;verticalAlign=top;spacingLeft=4;spacingRight=4;overflow=hidden;rotatable=0;points=[[0,0.5],[1,0.5]];portConstraint=eastwest;whiteSpace=wrap;html=1;fontStyle=0" parent="CawAfIm3Q9yhhVY6OOaU-72" vertex="1">
          <mxGeometry y="52" width="160" height="26" as="geometry" />
        </mxCell>
        <mxCell id="CawAfIm3Q9yhhVY6OOaU-75" value="&lt;span&gt;+Speak()&lt;/span&gt;" style="text;strokeColor=none;fillColor=none;align=left;verticalAlign=top;spacingLeft=4;spacingRight=4;overflow=hidden;rotatable=0;points=[[0,0.5],[1,0.5]];portConstraint=eastwest;whiteSpace=wrap;html=1;fontStyle=0" parent="CawAfIm3Q9yhhVY6OOaU-72" vertex="1">
          <mxGeometry y="78" width="160" height="26" as="geometry" />
        </mxCell>
        <mxCell id="CawAfIm3Q9yhhVY6OOaU-76" value="Extends" style="endArrow=block;endSize=16;endFill=0;html=1;rounded=0;fillColor=#1ba1e2;strokeColor=#006EAF;strokeWidth=1;" parent="1" source="CawAfIm3Q9yhhVY6OOaU-72" target="CawAfIm3Q9yhhVY6OOaU-60" edge="1">
          <mxGeometry width="160" relative="1" as="geometry">
            <mxPoint x="1665" y="1238" as="sourcePoint" />
            <mxPoint x="1825" y="1238" as="targetPoint" />
          </mxGeometry>
        </mxCell>
        <mxCell id="CawAfIm3Q9yhhVY6OOaU-77" value="Extends" style="endArrow=block;endSize=16;endFill=0;html=1;rounded=0;fillColor=#1ba1e2;strokeColor=#006EAF;strokeWidth=1;" parent="1" source="CawAfIm3Q9yhhVY6OOaU-72" target="CawAfIm3Q9yhhVY6OOaU-64" edge="1">
          <mxGeometry x="0.0061" width="160" relative="1" as="geometry">
            <mxPoint x="1665" y="1238" as="sourcePoint" />
            <mxPoint x="1825" y="1238" as="targetPoint" />
            <mxPoint as="offset" />
          </mxGeometry>
        </mxCell>
        <mxCell id="r5klLoDjx4hmF9z2d2eS-1" value="Да" style="edgeStyle=orthogonalEdgeStyle;rounded=0;orthogonalLoop=1;jettySize=auto;html=1;" parent="1" source="r5klLoDjx4hmF9z2d2eS-3" target="r5klLoDjx4hmF9z2d2eS-6" edge="1">
          <mxGeometry relative="1" as="geometry">
            <mxPoint x="540" y="1190" as="targetPoint" />
          </mxGeometry>
        </mxCell>
        <mxCell id="r5klLoDjx4hmF9z2d2eS-2" value="Нет" style="edgeStyle=orthogonalEdgeStyle;rounded=0;orthogonalLoop=1;jettySize=auto;html=1;" parent="1" source="r5klLoDjx4hmF9z2d2eS-3" target="r5klLoDjx4hmF9z2d2eS-12" edge="1">
          <mxGeometry relative="1" as="geometry" />
        </mxCell>
        <mxCell id="r5klLoDjx4hmF9z2d2eS-3" value="У класса будут наследники?" style="strokeWidth=2;html=1;shape=mxgraph.flowchart.decision;whiteSpace=wrap;" parent="1" vertex="1">
          <mxGeometry x="240" y="1040" width="259.88" height="70" as="geometry" />
        </mxCell>
        <mxCell id="r5klLoDjx4hmF9z2d2eS-4" value="Да" style="edgeStyle=orthogonalEdgeStyle;rounded=0;orthogonalLoop=1;jettySize=auto;html=1;exitX=0;exitY=0.5;exitDx=0;exitDy=0;exitPerimeter=0;" parent="1" source="r5klLoDjx4hmF9z2d2eS-6" target="r5klLoDjx4hmF9z2d2eS-8" edge="1">
          <mxGeometry relative="1" as="geometry" />
        </mxCell>
        <mxCell id="r5klLoDjx4hmF9z2d2eS-5" value="Нет" style="edgeStyle=orthogonalEdgeStyle;rounded=0;orthogonalLoop=1;jettySize=auto;html=1;" parent="1" source="r5klLoDjx4hmF9z2d2eS-6" target="r5klLoDjx4hmF9z2d2eS-15" edge="1">
          <mxGeometry relative="1" as="geometry">
            <Array as="points">
              <mxPoint x="600" y="1218" />
            </Array>
          </mxGeometry>
        </mxCell>
        <mxCell id="r5klLoDjx4hmF9z2d2eS-6" value="&lt;div style=&quot;font-size: 21px;&quot;&gt;&lt;br&gt;&lt;/div&gt;Наследники&amp;nbsp;будут удаляться&lt;div&gt;полиморфно, используя указатель&lt;/div&gt;&lt;div&gt;на этот класс?&lt;/div&gt;" style="strokeWidth=2;html=1;shape=mxgraph.flowchart.decision;whiteSpace=wrap;verticalAlign=top;" parent="1" vertex="1">
          <mxGeometry x="209.88" y="1169" width="320.12" height="98" as="geometry" />
        </mxCell>
        <mxCell id="r5klLoDjx4hmF9z2d2eS-7" style="edgeStyle=orthogonalEdgeStyle;rounded=0;orthogonalLoop=1;jettySize=auto;html=1;" parent="1" source="r5klLoDjx4hmF9z2d2eS-8" target="r5klLoDjx4hmF9z2d2eS-18" edge="1">
          <mxGeometry relative="1" as="geometry">
            <Array as="points">
              <mxPoint x="180" y="1480" />
              <mxPoint x="460" y="1480" />
            </Array>
          </mxGeometry>
        </mxCell>
        <mxCell id="r5klLoDjx4hmF9z2d2eS-8" value="Деструктор должен быть &lt;b&gt;публичным виртуальным&lt;/b&gt;" style="whiteSpace=wrap;html=1;strokeWidth=2;" parent="1" vertex="1">
          <mxGeometry x="80" y="1390" width="200" height="60" as="geometry" />
        </mxCell>
        <mxCell id="r5klLoDjx4hmF9z2d2eS-9" style="edgeStyle=orthogonalEdgeStyle;rounded=0;orthogonalLoop=1;jettySize=auto;html=1;" parent="1" source="r5klLoDjx4hmF9z2d2eS-10" target="r5klLoDjx4hmF9z2d2eS-18" edge="1">
          <mxGeometry relative="1" as="geometry">
            <Array as="points">
              <mxPoint x="460" y="1510" />
              <mxPoint x="460" y="1510" />
            </Array>
          </mxGeometry>
        </mxCell>
        <mxCell id="r5klLoDjx4hmF9z2d2eS-10" value="Деструктор должен быть&lt;div&gt;&lt;b&gt;защищённым невиртуальным&lt;/b&gt;&lt;/div&gt;" style="whiteSpace=wrap;html=1;strokeWidth=2;" parent="1" vertex="1">
          <mxGeometry x="340" y="1390" width="240" height="60" as="geometry" />
        </mxCell>
        <mxCell id="r5klLoDjx4hmF9z2d2eS-11" style="edgeStyle=orthogonalEdgeStyle;rounded=0;orthogonalLoop=1;jettySize=auto;html=1;" parent="1" source="r5klLoDjx4hmF9z2d2eS-12" target="r5klLoDjx4hmF9z2d2eS-18" edge="1">
          <mxGeometry relative="1" as="geometry">
            <Array as="points">
              <mxPoint x="765" y="1480" />
              <mxPoint x="460" y="1480" />
            </Array>
          </mxGeometry>
        </mxCell>
        <mxCell id="r5klLoDjx4hmF9z2d2eS-12" value="Деструктор должен быть &lt;b&gt;публичным невиртуальным&lt;/b&gt;" style="whiteSpace=wrap;html=1;strokeWidth=2;" parent="1" vertex="1">
          <mxGeometry x="680" y="1390" width="170" height="60" as="geometry" />
        </mxCell>
        <mxCell id="r5klLoDjx4hmF9z2d2eS-13" value="Нет" style="edgeStyle=orthogonalEdgeStyle;rounded=0;orthogonalLoop=1;jettySize=auto;html=1;" parent="1" source="r5klLoDjx4hmF9z2d2eS-15" target="r5klLoDjx4hmF9z2d2eS-10" edge="1">
          <mxGeometry relative="1" as="geometry">
            <mxPoint x="270" y="1120" as="sourcePoint" />
            <mxPoint x="130" y="1280" as="targetPoint" />
            <Array as="points">
              <mxPoint x="460" y="1295" />
            </Array>
          </mxGeometry>
        </mxCell>
        <mxCell id="r5klLoDjx4hmF9z2d2eS-14" value="Да" style="edgeStyle=orthogonalEdgeStyle;rounded=0;orthogonalLoop=1;jettySize=auto;html=1;" parent="1" source="r5klLoDjx4hmF9z2d2eS-15" target="r5klLoDjx4hmF9z2d2eS-12" edge="1">
          <mxGeometry relative="1" as="geometry">
            <Array as="points">
              <mxPoint x="730" y="1295" />
            </Array>
            <mxPoint x="60" y="1330" as="sourcePoint" />
            <mxPoint x="50" y="1460" as="targetPoint" />
          </mxGeometry>
        </mxCell>
        <mxCell id="r5klLoDjx4hmF9z2d2eS-15" value="&lt;div&gt;&lt;br&gt;&lt;/div&gt;Будут создаваться объекты&lt;div&gt;этого класса?&lt;/div&gt;" style="strokeWidth=2;html=1;shape=mxgraph.flowchart.decision;whiteSpace=wrap;" parent="1" vertex="1">
          <mxGeometry x="480" y="1260" width="239.76" height="70" as="geometry" />
        </mxCell>
        <mxCell id="r5klLoDjx4hmF9z2d2eS-16" style="edgeStyle=orthogonalEdgeStyle;rounded=0;orthogonalLoop=1;jettySize=auto;html=1;" parent="1" source="r5klLoDjx4hmF9z2d2eS-17" target="r5klLoDjx4hmF9z2d2eS-3" edge="1">
          <mxGeometry relative="1" as="geometry" />
        </mxCell>
        <mxCell id="r5klLoDjx4hmF9z2d2eS-17" value="Начало" style="strokeWidth=2;html=1;shape=mxgraph.flowchart.start_1;whiteSpace=wrap;" parent="1" vertex="1">
          <mxGeometry x="319.94" y="962" width="100" height="40" as="geometry" />
        </mxCell>
        <mxCell id="r5klLoDjx4hmF9z2d2eS-18" value="Конец" style="strokeWidth=2;html=1;shape=mxgraph.flowchart.terminator;whiteSpace=wrap;" parent="1" vertex="1">
          <mxGeometry x="410" y="1510" width="100" height="60" as="geometry" />
        </mxCell>
        <mxCell id="r5klLoDjx4hmF9z2d2eS-19" value="BaseHttpRequest" style="swimlane;fontStyle=1;align=center;verticalAlign=top;childLayout=stackLayout;horizontal=1;startSize=26;horizontalStack=0;resizeParent=1;resizeParentMax=0;resizeLast=0;collapsible=1;marginBottom=0;whiteSpace=wrap;html=1;" parent="1" vertex="1">
          <mxGeometry x="350" y="1730" width="240" height="78" as="geometry" />
        </mxCell>
        <mxCell id="r5klLoDjx4hmF9z2d2eS-20" value="+ target: string" style="text;strokeColor=none;fillColor=none;align=left;verticalAlign=top;spacingLeft=4;spacingRight=4;overflow=hidden;rotatable=0;points=[[0,0.5],[1,0.5]];portConstraint=eastwest;whiteSpace=wrap;html=1;" parent="r5klLoDjx4hmF9z2d2eS-19" vertex="1">
          <mxGeometry y="26" width="240" height="26" as="geometry" />
        </mxCell>
        <mxCell id="r5klLoDjx4hmF9z2d2eS-22" value="+ headers: unordered_map&amp;lt;string, string&amp;gt;" style="text;strokeColor=none;fillColor=none;align=left;verticalAlign=top;spacingLeft=4;spacingRight=4;overflow=hidden;rotatable=0;points=[[0,0.5],[1,0.5]];portConstraint=eastwest;whiteSpace=wrap;html=1;" parent="r5klLoDjx4hmF9z2d2eS-19" vertex="1">
          <mxGeometry y="52" width="240" height="26" as="geometry" />
        </mxCell>
        <mxCell id="r5klLoDjx4hmF9z2d2eS-27" value="GetRequest" style="swimlane;fontStyle=1;align=center;verticalAlign=top;childLayout=stackLayout;horizontal=1;startSize=26;horizontalStack=0;resizeParent=1;resizeParentMax=0;resizeLast=0;collapsible=1;marginBottom=0;whiteSpace=wrap;html=1;" parent="1" vertex="1">
          <mxGeometry x="160" y="1880" width="120" height="52" as="geometry" />
        </mxCell>
        <mxCell id="r5klLoDjx4hmF9z2d2eS-31" value="" style="endArrow=block;endSize=16;endFill=0;html=1;rounded=0;" parent="1" source="r5klLoDjx4hmF9z2d2eS-27" target="r5klLoDjx4hmF9z2d2eS-19" edge="1">
          <mxGeometry width="160" relative="1" as="geometry">
            <mxPoint x="350" y="1850" as="sourcePoint" />
            <mxPoint x="510" y="1850" as="targetPoint" />
          </mxGeometry>
        </mxCell>
        <mxCell id="r5klLoDjx4hmF9z2d2eS-32" value="PostRequest" style="swimlane;fontStyle=1;align=center;verticalAlign=top;childLayout=stackLayout;horizontal=1;startSize=26;horizontalStack=0;resizeParent=1;resizeParentMax=0;resizeLast=0;collapsible=1;marginBottom=0;whiteSpace=wrap;html=1;" parent="1" vertex="1">
          <mxGeometry x="320" y="1880" width="120" height="52" as="geometry" />
        </mxCell>
        <mxCell id="r5klLoDjx4hmF9z2d2eS-33" value="+ body: string" style="text;strokeColor=none;fillColor=none;align=left;verticalAlign=top;spacingLeft=4;spacingRight=4;overflow=hidden;rotatable=0;points=[[0,0.5],[1,0.5]];portConstraint=eastwest;whiteSpace=wrap;html=1;" parent="r5klLoDjx4hmF9z2d2eS-32" vertex="1">
          <mxGeometry y="26" width="120" height="26" as="geometry" />
        </mxCell>
        <mxCell id="r5klLoDjx4hmF9z2d2eS-34" value="" style="endArrow=block;endSize=16;endFill=0;html=1;rounded=0;" parent="1" source="r5klLoDjx4hmF9z2d2eS-32" target="r5klLoDjx4hmF9z2d2eS-19" edge="1">
          <mxGeometry width="160" relative="1" as="geometry">
            <mxPoint x="350" y="1850" as="sourcePoint" />
            <mxPoint x="510" y="1850" as="targetPoint" />
          </mxGeometry>
        </mxCell>
        <mxCell id="r5klLoDjx4hmF9z2d2eS-35" value="PutRequest" style="swimlane;fontStyle=1;align=center;verticalAlign=top;childLayout=stackLayout;horizontal=1;startSize=26;horizontalStack=0;resizeParent=1;resizeParentMax=0;resizeLast=0;collapsible=1;marginBottom=0;whiteSpace=wrap;html=1;" parent="1" vertex="1">
          <mxGeometry x="480" y="1880" width="120" height="52" as="geometry" />
        </mxCell>
        <mxCell id="r5klLoDjx4hmF9z2d2eS-36" value="+ body: string" style="text;strokeColor=none;fillColor=none;align=left;verticalAlign=top;spacingLeft=4;spacingRight=4;overflow=hidden;rotatable=0;points=[[0,0.5],[1,0.5]];portConstraint=eastwest;whiteSpace=wrap;html=1;" parent="r5klLoDjx4hmF9z2d2eS-35" vertex="1">
          <mxGeometry y="26" width="120" height="26" as="geometry" />
        </mxCell>
        <mxCell id="r5klLoDjx4hmF9z2d2eS-37" value="DeleteRequest" style="swimlane;fontStyle=1;align=center;verticalAlign=top;childLayout=stackLayout;horizontal=1;startSize=26;horizontalStack=0;resizeParent=1;resizeParentMax=0;resizeLast=0;collapsible=1;marginBottom=0;whiteSpace=wrap;html=1;" parent="1" vertex="1">
          <mxGeometry x="640" y="1880" width="120" height="52" as="geometry" />
        </mxCell>
        <mxCell id="r5klLoDjx4hmF9z2d2eS-39" value="" style="endArrow=block;endSize=16;endFill=0;html=1;rounded=0;" parent="1" source="r5klLoDjx4hmF9z2d2eS-35" target="r5klLoDjx4hmF9z2d2eS-19" edge="1">
          <mxGeometry width="160" relative="1" as="geometry">
            <mxPoint x="350" y="1850" as="sourcePoint" />
            <mxPoint x="510" y="1850" as="targetPoint" />
          </mxGeometry>
        </mxCell>
        <mxCell id="r5klLoDjx4hmF9z2d2eS-40" value="" style="endArrow=block;endSize=16;endFill=0;html=1;rounded=0;" parent="1" source="r5klLoDjx4hmF9z2d2eS-37" target="r5klLoDjx4hmF9z2d2eS-19" edge="1">
          <mxGeometry width="160" relative="1" as="geometry">
            <mxPoint x="350" y="1850" as="sourcePoint" />
            <mxPoint x="510" y="1850" as="targetPoint" />
          </mxGeometry>
        </mxCell>
        <mxCell id="r5klLoDjx4hmF9z2d2eS-41" value="Drawable" style="swimlane;fontStyle=3;align=center;verticalAlign=top;childLayout=stackLayout;horizontal=1;startSize=26;horizontalStack=0;resizeParent=1;resizeParentMax=0;resizeLast=0;collapsible=1;marginBottom=0;whiteSpace=wrap;html=1;" parent="1" vertex="1">
          <mxGeometry x="280" y="2040" width="120" height="52" as="geometry" />
        </mxCell>
        <mxCell id="r5klLoDjx4hmF9z2d2eS-42" value="&lt;i&gt;+ Draw()&lt;/i&gt;" style="text;strokeColor=none;fillColor=none;align=left;verticalAlign=top;spacingLeft=4;spacingRight=4;overflow=hidden;rotatable=0;points=[[0,0.5],[1,0.5]];portConstraint=eastwest;whiteSpace=wrap;html=1;" parent="r5klLoDjx4hmF9z2d2eS-41" vertex="1">
          <mxGeometry y="26" width="120" height="26" as="geometry" />
        </mxCell>
        <mxCell id="r5klLoDjx4hmF9z2d2eS-45" value="Animal" style="swimlane;fontStyle=3;align=center;verticalAlign=top;childLayout=stackLayout;horizontal=1;startSize=26;horizontalStack=0;resizeParent=1;resizeParentMax=0;resizeLast=0;collapsible=1;marginBottom=0;whiteSpace=wrap;html=1;" parent="1" vertex="1">
          <mxGeometry x="240" y="2160" width="120" height="78" as="geometry" />
        </mxCell>
        <mxCell id="r5klLoDjx4hmF9z2d2eS-46" value="+ Eat()" style="text;strokeColor=none;fillColor=none;align=left;verticalAlign=top;spacingLeft=4;spacingRight=4;overflow=hidden;rotatable=0;points=[[0,0.5],[1,0.5]];portConstraint=eastwest;whiteSpace=wrap;html=1;" parent="r5klLoDjx4hmF9z2d2eS-45" vertex="1">
          <mxGeometry y="26" width="120" height="26" as="geometry" />
        </mxCell>
        <mxCell id="r5klLoDjx4hmF9z2d2eS-47" value="+ Move()" style="text;strokeColor=none;fillColor=none;align=left;verticalAlign=top;spacingLeft=4;spacingRight=4;overflow=hidden;rotatable=0;points=[[0,0.5],[1,0.5]];portConstraint=eastwest;whiteSpace=wrap;html=1;fontStyle=2" parent="r5klLoDjx4hmF9z2d2eS-45" vertex="1">
          <mxGeometry y="52" width="120" height="26" as="geometry" />
        </mxCell>
        <mxCell id="r5klLoDjx4hmF9z2d2eS-49" value="" style="endArrow=block;dashed=1;endFill=0;endSize=12;html=1;rounded=0;" parent="1" source="r5klLoDjx4hmF9z2d2eS-45" target="r5klLoDjx4hmF9z2d2eS-41" edge="1">
          <mxGeometry width="160" relative="1" as="geometry">
            <mxPoint x="360" y="2140" as="sourcePoint" />
            <mxPoint x="520" y="2140" as="targetPoint" />
          </mxGeometry>
        </mxCell>
        <mxCell id="r5klLoDjx4hmF9z2d2eS-50" value="&lt;span style=&quot;font-style: normal;&quot;&gt;Robot&lt;/span&gt;" style="swimlane;fontStyle=3;align=center;verticalAlign=top;childLayout=stackLayout;horizontal=1;startSize=26;horizontalStack=0;resizeParent=1;resizeParentMax=0;resizeLast=0;collapsible=1;marginBottom=0;whiteSpace=wrap;html=1;" parent="1" vertex="1">
          <mxGeometry x="400" y="2160" width="120" height="52" as="geometry" />
        </mxCell>
        <mxCell id="r5klLoDjx4hmF9z2d2eS-52" value="+ Draw()" style="text;strokeColor=none;fillColor=none;align=left;verticalAlign=top;spacingLeft=4;spacingRight=4;overflow=hidden;rotatable=0;points=[[0,0.5],[1,0.5]];portConstraint=eastwest;whiteSpace=wrap;html=1;fontStyle=0" parent="r5klLoDjx4hmF9z2d2eS-50" vertex="1">
          <mxGeometry y="26" width="120" height="26" as="geometry" />
        </mxCell>
        <mxCell id="r5klLoDjx4hmF9z2d2eS-53" value="" style="endArrow=block;dashed=1;endFill=0;endSize=12;html=1;rounded=0;" parent="1" source="r5klLoDjx4hmF9z2d2eS-50" target="r5klLoDjx4hmF9z2d2eS-41" edge="1">
          <mxGeometry width="160" relative="1" as="geometry">
            <mxPoint x="360" y="2140" as="sourcePoint" />
            <mxPoint x="520" y="2140" as="targetPoint" />
          </mxGeometry>
        </mxCell>
        <mxCell id="r5klLoDjx4hmF9z2d2eS-54" value="&lt;span style=&quot;font-style: normal;&quot;&gt;Cat&lt;/span&gt;" style="swimlane;fontStyle=3;align=center;verticalAlign=top;childLayout=stackLayout;horizontal=1;startSize=26;horizontalStack=0;resizeParent=1;resizeParentMax=0;resizeLast=0;collapsible=1;marginBottom=0;whiteSpace=wrap;html=1;" parent="1" vertex="1">
          <mxGeometry x="319.94" y="2280" width="120" height="78" as="geometry" />
        </mxCell>
        <mxCell id="r5klLoDjx4hmF9z2d2eS-55" value="+ Draw()" style="text;strokeColor=none;fillColor=none;align=left;verticalAlign=top;spacingLeft=4;spacingRight=4;overflow=hidden;rotatable=0;points=[[0,0.5],[1,0.5]];portConstraint=eastwest;whiteSpace=wrap;html=1;fontStyle=0" parent="r5klLoDjx4hmF9z2d2eS-54" vertex="1">
          <mxGeometry y="26" width="120" height="26" as="geometry" />
        </mxCell>
        <mxCell id="r5klLoDjx4hmF9z2d2eS-56" value="+ Move()" style="text;strokeColor=none;fillColor=none;align=left;verticalAlign=top;spacingLeft=4;spacingRight=4;overflow=hidden;rotatable=0;points=[[0,0.5],[1,0.5]];portConstraint=eastwest;whiteSpace=wrap;html=1;fontStyle=0" parent="r5klLoDjx4hmF9z2d2eS-54" vertex="1">
          <mxGeometry y="52" width="120" height="26" as="geometry" />
        </mxCell>
        <mxCell id="r5klLoDjx4hmF9z2d2eS-57" value="&lt;span style=&quot;font-style: normal;&quot;&gt;Fish&lt;/span&gt;" style="swimlane;fontStyle=3;align=center;verticalAlign=top;childLayout=stackLayout;horizontal=1;startSize=26;horizontalStack=0;resizeParent=1;resizeParentMax=0;resizeLast=0;collapsible=1;marginBottom=0;whiteSpace=wrap;html=1;" parent="1" vertex="1">
          <mxGeometry x="160" y="2280" width="120" height="78" as="geometry" />
        </mxCell>
        <mxCell id="r5klLoDjx4hmF9z2d2eS-58" value="+ Draw()" style="text;strokeColor=none;fillColor=none;align=left;verticalAlign=top;spacingLeft=4;spacingRight=4;overflow=hidden;rotatable=0;points=[[0,0.5],[1,0.5]];portConstraint=eastwest;whiteSpace=wrap;html=1;fontStyle=0" parent="r5klLoDjx4hmF9z2d2eS-57" vertex="1">
          <mxGeometry y="26" width="120" height="26" as="geometry" />
        </mxCell>
        <mxCell id="r5klLoDjx4hmF9z2d2eS-59" value="+ Move()" style="text;strokeColor=none;fillColor=none;align=left;verticalAlign=top;spacingLeft=4;spacingRight=4;overflow=hidden;rotatable=0;points=[[0,0.5],[1,0.5]];portConstraint=eastwest;whiteSpace=wrap;html=1;fontStyle=0" parent="r5klLoDjx4hmF9z2d2eS-57" vertex="1">
          <mxGeometry y="52" width="120" height="26" as="geometry" />
        </mxCell>
        <mxCell id="r5klLoDjx4hmF9z2d2eS-60" value="" style="endArrow=block;endSize=16;endFill=0;html=1;rounded=0;" parent="1" source="r5klLoDjx4hmF9z2d2eS-57" target="r5klLoDjx4hmF9z2d2eS-45" edge="1">
          <mxGeometry width="160" relative="1" as="geometry">
            <mxPoint x="210" y="2290" as="sourcePoint" />
            <mxPoint x="370" y="2290" as="targetPoint" />
          </mxGeometry>
        </mxCell>
        <mxCell id="r5klLoDjx4hmF9z2d2eS-61" value="" style="endArrow=block;endSize=16;endFill=0;html=1;rounded=0;" parent="1" source="r5klLoDjx4hmF9z2d2eS-54" target="r5klLoDjx4hmF9z2d2eS-45" edge="1">
          <mxGeometry width="160" relative="1" as="geometry">
            <mxPoint x="210" y="2290" as="sourcePoint" />
            <mxPoint x="370" y="2290" as="targetPoint" />
          </mxGeometry>
        </mxCell>
        <mxCell id="JWJLLMxNEEDVaTBIcfby-1" value="&lt;i&gt;IShape&lt;/i&gt;" style="swimlane;fontStyle=1;align=center;verticalAlign=top;childLayout=stackLayout;horizontal=1;startSize=26;horizontalStack=0;resizeParent=1;resizeParentMax=0;resizeLast=0;collapsible=1;marginBottom=0;whiteSpace=wrap;html=1;" vertex="1" parent="1">
          <mxGeometry x="880" y="1960" width="160" height="52" as="geometry" />
        </mxCell>
        <mxCell id="JWJLLMxNEEDVaTBIcfby-5" value="&lt;i&gt;Shape&lt;/i&gt;" style="swimlane;fontStyle=1;align=center;verticalAlign=top;childLayout=stackLayout;horizontal=1;startSize=26;horizontalStack=0;resizeParent=1;resizeParentMax=0;resizeLast=0;collapsible=1;marginBottom=0;whiteSpace=wrap;html=1;" vertex="1" parent="1">
          <mxGeometry x="880" y="2080" width="160" height="52" as="geometry" />
        </mxCell>
        <mxCell id="JWJLLMxNEEDVaTBIcfby-6" value="" style="endArrow=block;dashed=1;endFill=0;endSize=12;html=1;rounded=0;" edge="1" parent="1" source="JWJLLMxNEEDVaTBIcfby-5" target="JWJLLMxNEEDVaTBIcfby-1">
          <mxGeometry width="160" relative="1" as="geometry">
            <mxPoint x="940" y="2050" as="sourcePoint" />
            <mxPoint x="1100" y="2050" as="targetPoint" />
          </mxGeometry>
        </mxCell>
        <mxCell id="JWJLLMxNEEDVaTBIcfby-7" value="Circle" style="swimlane;fontStyle=1;align=center;verticalAlign=top;childLayout=stackLayout;horizontal=1;startSize=26;horizontalStack=0;resizeParent=1;resizeParentMax=0;resizeLast=0;collapsible=1;marginBottom=0;whiteSpace=wrap;html=1;" vertex="1" parent="1">
          <mxGeometry x="800" y="2200" width="160" height="52" as="geometry" />
        </mxCell>
        <mxCell id="JWJLLMxNEEDVaTBIcfby-8" value="Square" style="swimlane;fontStyle=1;align=center;verticalAlign=top;childLayout=stackLayout;horizontal=1;startSize=26;horizontalStack=0;resizeParent=1;resizeParentMax=0;resizeLast=0;collapsible=1;marginBottom=0;whiteSpace=wrap;html=1;" vertex="1" parent="1">
          <mxGeometry x="1000" y="2200" width="160" height="52" as="geometry" />
        </mxCell>
        <mxCell id="JWJLLMxNEEDVaTBIcfby-9" value="Extends" style="endArrow=block;endSize=16;endFill=0;html=1;rounded=0;" edge="1" parent="1" source="JWJLLMxNEEDVaTBIcfby-7" target="JWJLLMxNEEDVaTBIcfby-5">
          <mxGeometry width="160" relative="1" as="geometry">
            <mxPoint x="870" y="2160" as="sourcePoint" />
            <mxPoint x="1030" y="2160" as="targetPoint" />
          </mxGeometry>
        </mxCell>
        <mxCell id="JWJLLMxNEEDVaTBIcfby-10" value="Extends" style="endArrow=block;endSize=16;endFill=0;html=1;rounded=0;" edge="1" parent="1" source="JWJLLMxNEEDVaTBIcfby-8" target="JWJLLMxNEEDVaTBIcfby-5">
          <mxGeometry width="160" relative="1" as="geometry">
            <mxPoint x="870" y="2160" as="sourcePoint" />
            <mxPoint x="1030" y="2160" as="targetPoint" />
          </mxGeometry>
        </mxCell>
      </root>
    </mxGraphModel>
  </diagram>
</mxfile>
